<svg xmlns="http://www.w3.org/2000/svg" width="24" height="24" viewBox="0 0 24 24">
  <g id="Group_8332" data-name="Group 8332" transform="translate(-331 -41)">
    <g id="icon_social_notifications_24px" data-name="icon/social/notifications_24px" transform="translate(331 41)">
      <rect id="Boundary" width="24" height="24" fill="none"/>
      <path id="_Color" data-name=" ↳Color" d="M8,19.5a2,2,0,0,1-2-2h4A2,2,0,0,1,8,19.5Zm8-3H0v-1l2-2v-5A7.1,7.1,0,0,1,3.174,4.44,5.522,5.522,0,0,1,6.5,2.18V1.5a1.5,1.5,0,0,1,3,0v.68a5.529,5.529,0,0,1,3.322,2.264A7.085,7.085,0,0,1,14,8.5v5l2,2v1Z" transform="translate(4 2)" fill="#fff2f2"/>
    </g>
    <circle id="Ellipse_487" data-name="Ellipse 487" cx="4" cy="4" r="4" transform="translate(345 43)" fill="red"/>
  </g>
</svg>
